<svg width="428" height="300" viewBox="0 0 428 300" fill="none" xmlns="http://www.w3.org/2000/svg">
<path d="M513.259 87.3806C527.678 152.616 405.251 235.334 239.81 272.137C74.3692 308.939 -71.4363 285.889 -85.8557 220.653C-100.275 155.417 22.1519 72.6991 187.593 35.8969C353.034 -0.905214 498.839 22.1448 513.259 87.3806Z" fill="url(#paint0_radial_1215_9767)" fill-opacity="0.01"/>
<path d="M512.77 87.4885C516.335 103.617 511.455 120.878 499.469 138.311C487.481 155.746 468.414 173.31 443.702 190.007C394.281 223.398 322.376 253.258 239.701 271.649C157.027 290.039 79.2798 293.47 20.4222 284.165C-9.00821 279.513 -33.6893 271.68 -51.8988 260.963C-70.1074 250.247 -81.8025 236.674 -85.3675 220.545C-88.9325 204.416 -84.0524 187.156 -72.0657 169.722C-60.0784 152.288 -41.0108 134.723 -16.2991 118.027C33.1214 84.6355 105.026 54.776 187.701 36.385C270.376 17.994 348.123 14.5637 406.981 23.8684C436.411 28.521 461.092 36.3535 479.302 47.0705C497.51 57.787 509.205 71.3599 512.77 87.4885Z" stroke="url(#paint1_linear_1215_9767)" stroke-opacity="0.05"/>
<path d="M469.849 97.0365C482.212 152.969 377.369 223.863 235.675 255.383C93.9821 286.902 -30.9053 267.111 -43.2684 211.179C-55.6315 155.246 49.2115 84.3523 190.905 52.8327C332.598 21.3132 457.486 41.1039 469.849 97.0365Z" fill="url(#paint2_radial_1215_9767)" fill-opacity="0.01"/>
<path d="M469.361 97.1444C472.412 110.948 468.245 125.725 457.988 140.659C447.731 155.594 431.411 170.643 410.253 184.95C367.94 213.562 306.368 239.145 235.567 254.894C164.766 270.644 98.1855 273.569 47.7829 265.581C22.5801 261.588 1.44869 254.87 -14.1395 245.684C-29.7268 236.499 -39.7292 224.874 -42.7802 211.071C-45.8312 197.268 -41.6643 182.491 -31.408 167.556C-21.151 152.621 -4.83073 137.572 16.3271 123.265C58.6402 94.6533 120.212 69.0705 191.013 53.3208C261.815 37.5712 328.395 34.6467 378.797 42.6339C404 46.6278 425.132 53.3457 440.72 62.5314C456.307 71.7165 466.31 83.3413 469.361 97.1444Z" stroke="url(#paint3_linear_1215_9767)" stroke-opacity="0.11"/>
<path d="M427.67 106.419C437.977 153.049 350.535 212.159 232.363 238.446C114.191 264.734 10.038 248.243 -0.268777 201.614C-10.5755 154.984 76.8666 95.8738 195.039 69.5866C313.211 43.2993 417.363 59.7899 427.67 106.419Z" fill="url(#paint4_radial_1215_9767)" fill-opacity="0.01"/>
<path d="M427.182 106.527C429.719 118.005 426.254 130.301 417.707 142.741C409.16 155.181 395.557 167.722 377.916 179.647C342.636 203.496 291.294 224.825 232.254 237.958C173.213 251.092 117.697 253.533 75.6756 246.88C54.6632 243.553 37.0515 237.956 24.0638 230.306C11.0772 222.657 2.7563 212.983 0.219439 201.506C-2.31746 190.029 1.14733 177.732 9.69401 165.293C18.2413 152.852 31.8442 140.312 49.4854 128.386C84.7652 104.537 136.107 83.2081 195.147 70.0746C254.188 56.9411 309.704 54.4997 351.726 61.153C372.738 64.48 390.35 70.0768 403.337 77.7266C416.324 85.3758 424.645 95.05 427.182 106.527Z" stroke="url(#paint5_linear_1215_9767)" stroke-opacity="0.2"/>
<defs>
<radialGradient id="paint0_radial_1215_9767" cx="0" cy="0" r="1" gradientUnits="userSpaceOnUse" gradientTransform="translate(213.701 154.017) rotate(77.536) scale(120.971 306.879)">
<stop offset="0.818287" stop-color="white" stop-opacity="0"/>
<stop offset="1" stop-color="white"/>
</radialGradient>
<linearGradient id="paint1_linear_1215_9767" x1="-131.681" y1="130.384" x2="521.819" y2="342.013" gradientUnits="userSpaceOnUse">
<stop stop-color="#34D399"/>
<stop offset="0.58912" stop-color="#34D399" stop-opacity="0.23"/>
<stop offset="1" stop-color="#34D399"/>
</linearGradient>
<radialGradient id="paint2_radial_1215_9767" cx="0" cy="0" r="1" gradientUnits="userSpaceOnUse" gradientTransform="translate(213.291 154.108) rotate(77.536) scale(103.719 262.829)">
<stop offset="0.818287" stop-color="white" stop-opacity="0"/>
<stop offset="1" stop-color="white"/>
</radialGradient>
<linearGradient id="paint3_linear_1215_9767" x1="-82.5343" y1="133.778" x2="477.405" y2="314.815" gradientUnits="userSpaceOnUse">
<stop stop-color="white"/>
<stop offset="0.58912" stop-color="#34D399" stop-opacity="0.23"/>
<stop offset="1" stop-color="white"/>
</linearGradient>
<radialGradient id="paint4_radial_1215_9767" cx="0" cy="0" r="1" gradientUnits="userSpaceOnUse" gradientTransform="translate(213.7 154.017) rotate(77.536) scale(86.4679 219.199)">
<stop offset="0.818287" stop-color="white" stop-opacity="0"/>
<stop offset="1" stop-color="white"/>
</radialGradient>
<linearGradient id="paint5_linear_1215_9767" x1="-22.473" y1="250.938" x2="492.485" y2="226.798" gradientUnits="userSpaceOnUse">
<stop stop-color="white"/>
<stop offset="0.375579" stop-color="#34D399" stop-opacity="0.23"/>
<stop offset="1" stop-color="white"/>
</linearGradient>
</defs>
</svg>
